<svg width="841" height="211" viewBox="0 0 841 211" fill="none" xmlns="http://www.w3.org/2000/svg">
<path d="M128.8 179.12C124.6 179.12 121.613 178.513 119.84 177.3C118.067 175.993 116.993 174.36 116.62 172.4C116.34 170.44 116.2 168.433 116.2 166.38V120.32C116.2 118.267 116.387 116.307 116.76 114.44C117.133 112.573 118.207 111.08 119.98 109.96C121.753 108.747 124.74 108.14 128.94 108.14C132.767 108.14 135.52 108.653 137.2 109.68C138.973 110.613 140.093 111.78 140.56 113.18C141.027 114.58 141.213 115.887 141.12 117.1C141.12 118.22 141.213 118.92 141.4 119.2L140.28 120.04C140.187 118.64 140.7 117.24 141.82 115.84C143.033 114.44 144.573 113.18 146.44 112.06C148.4 110.847 150.453 109.913 152.6 109.26C154.84 108.513 156.94 108.14 158.9 108.14C163.567 108.14 167.673 109.027 171.22 110.8C174.767 112.573 177.707 115.093 180.04 118.36C182.467 121.533 184.287 125.267 185.5 129.56C186.713 133.853 187.32 138.52 187.32 143.56V166.52C187.32 168.573 187.133 170.58 186.76 172.54C186.387 174.5 185.313 176.087 183.54 177.3C181.86 178.513 178.873 179.12 174.58 179.12C170.287 179.12 167.253 178.513 165.48 177.3C163.707 175.993 162.633 174.36 162.26 172.4C161.887 170.44 161.7 168.433 161.7 166.38V143.56C161.7 141.413 161.28 139.593 160.44 138.1C159.693 136.607 158.573 135.487 157.08 134.74C155.68 133.9 153.907 133.48 151.76 133.48C149.707 133.48 147.887 133.9 146.3 134.74C144.807 135.58 143.64 136.747 142.8 138.24C141.96 139.733 141.54 141.507 141.54 143.56V166.52C141.54 168.573 141.353 170.58 140.98 172.54C140.607 174.5 139.533 176.087 137.76 177.3C136.08 178.513 133.093 179.12 128.8 179.12ZM231.617 180.8C224.617 180.8 218.69 179.68 213.837 177.44C208.984 175.107 205.064 172.12 202.077 168.48C199.09 164.747 196.897 160.733 195.497 156.44C194.097 152.147 193.397 147.993 193.397 143.98C193.397 136.607 195.03 130.12 198.297 124.52C201.564 118.92 206.09 114.533 211.877 111.36C217.664 108.187 224.29 106.6 231.757 106.6C237.544 106.6 242.49 107.533 246.597 109.4C250.704 111.267 254.017 113.647 256.537 116.54C259.15 119.433 261.064 122.513 262.277 125.78C263.49 129.047 264.097 132.08 264.097 134.88C264.097 140.2 262.79 144.26 260.177 147.06C257.564 149.86 254.204 151.26 250.097 151.26H220.277C220.65 152.753 221.397 154.06 222.517 155.18C223.73 156.207 225.224 157.047 226.997 157.7C228.77 158.26 230.684 158.54 232.737 158.54C234.79 158.54 236.61 158.447 238.197 158.26C239.784 157.98 241.137 157.653 242.257 157.28C243.47 156.907 244.544 156.533 245.477 156.16C246.504 155.787 247.39 155.507 248.137 155.32C248.977 155.04 249.77 154.9 250.517 154.9C252.197 154.9 253.737 155.46 255.137 156.58C256.537 157.7 257.797 159.38 258.917 161.62C259.57 162.833 260.037 164 260.317 165.12C260.597 166.147 260.737 167.127 260.737 168.06C260.737 170.86 259.57 173.193 257.237 175.06C254.997 176.927 251.73 178.327 247.437 179.26C243.144 180.287 237.87 180.8 231.617 180.8ZM220.277 138.1H235.957C237.264 138.1 238.197 137.82 238.757 137.26C239.41 136.7 239.737 135.86 239.737 134.74C239.737 133.527 239.364 132.5 238.617 131.66C237.964 130.82 237.03 130.213 235.817 129.84C234.604 129.373 233.157 129.14 231.477 129.14C229.237 129.14 227.277 129.607 225.597 130.54C223.917 131.38 222.61 132.5 221.677 133.9C220.837 135.207 220.37 136.607 220.277 138.1ZM294.88 179.68C291.894 179.68 289.56 179.073 287.88 177.86C286.294 176.647 285.127 175.247 284.38 173.66C283.634 172.073 283.027 170.767 282.56 169.74L263.94 123.96C263.194 121.347 262.82 119.153 262.82 117.38C262.914 115.513 263.567 113.927 264.78 112.62C266.087 111.313 268.094 110.147 270.8 109.12C275.094 107.253 278.594 106.74 281.3 107.58C284.1 108.327 286.107 110.567 287.32 114.3L294.88 135.16L301.46 117.1C301.834 116.167 302.394 115 303.14 113.6C303.887 112.2 305.054 110.94 306.64 109.82C308.32 108.607 310.56 108 313.36 108C316.44 108 318.82 108.607 320.5 109.82C322.18 110.94 323.44 112.247 324.28 113.74C325.12 115.14 325.68 116.307 325.96 117.24L332.4 135.16L339.12 116.54C340.707 112.433 342.76 109.633 345.28 108.14C347.894 106.647 351.3 106.833 355.5 108.7C359.42 110.473 362.127 112.62 363.62 115.14C365.114 117.567 365.02 120.6 363.34 124.24L344.58 169.74C344.114 170.86 343.507 172.213 342.76 173.8C342.014 175.387 340.847 176.787 339.26 178C337.674 179.12 335.434 179.68 332.54 179.68C329.554 179.68 327.267 179.167 325.68 178.14C324.094 177.113 322.88 175.853 322.04 174.36C321.294 172.773 320.64 171.233 320.08 169.74L313.64 152.52L307.2 169.74C306.454 171.7 305.754 173.427 305.1 174.92C304.447 176.413 303.374 177.58 301.88 178.42C300.387 179.26 298.054 179.68 294.88 179.68ZM394.496 180.52C391.883 180.52 388.943 180.193 385.676 179.54C382.503 178.98 379.376 178.14 376.296 177.02C373.309 175.807 370.836 174.407 368.876 172.82C366.916 171.233 365.936 169.413 365.936 167.36C365.936 166.427 366.123 165.4 366.496 164.28C366.963 163.067 367.569 161.76 368.316 160.36C369.063 158.96 369.996 157.467 371.116 155.88C371.769 154.947 372.516 154.247 373.356 153.78C374.289 153.313 375.363 153.08 376.576 153.08C378.256 153.08 379.889 153.453 381.476 154.2C383.063 154.853 384.649 155.647 386.236 156.58C387.823 157.42 389.456 158.213 391.136 158.96C392.909 159.613 394.776 159.94 396.736 159.94C398.509 159.94 399.816 159.753 400.656 159.38C401.589 159.007 402.056 158.447 402.056 157.7C402.056 156.953 401.729 156.347 401.076 155.88C400.516 155.413 399.676 155.04 398.556 154.76C397.529 154.387 396.316 154.06 394.916 153.78C393.516 153.5 392.023 153.173 390.436 152.8C388.849 152.427 387.216 151.96 385.536 151.4C383.389 150.747 381.289 149.907 379.236 148.88C377.183 147.76 375.316 146.313 373.636 144.54C372.049 142.767 370.743 140.62 369.716 138.1C368.783 135.58 368.316 132.5 368.316 128.86C368.316 124.007 369.436 119.947 371.676 116.68C373.916 113.413 377.229 110.94 381.616 109.26C386.003 107.58 391.416 106.74 397.856 106.74C399.443 106.74 401.029 106.833 402.616 107.02C404.203 107.207 405.789 107.487 407.376 107.86C409.056 108.233 410.689 108.747 412.276 109.4C413.956 109.96 415.636 110.613 417.316 111.36C420.769 112.853 422.543 114.953 422.636 117.66C422.729 120.273 421.749 123.027 419.696 125.92C418.576 127.693 417.409 129.047 416.196 129.98C415.076 130.82 413.909 131.24 412.696 131.24C411.203 131.24 409.569 130.82 407.796 129.98C406.023 129.14 404.156 128.3 402.196 127.46C400.236 126.62 398.276 126.2 396.316 126.2C395.196 126.2 394.216 126.34 393.376 126.62C392.629 126.807 392.069 127.133 391.696 127.6C391.323 127.973 391.136 128.44 391.136 129C391.136 130.027 391.463 130.867 392.116 131.52C392.863 132.08 393.796 132.547 394.916 132.92C396.129 133.293 397.483 133.62 398.976 133.9C400.563 134.18 402.243 134.46 404.016 134.74C406.443 135.113 408.916 135.72 411.436 136.56C414.049 137.307 416.429 138.427 418.576 139.92C420.723 141.413 422.449 143.467 423.756 146.08C425.063 148.693 425.716 152.1 425.716 156.3C425.716 164.233 423.056 170.253 417.736 174.36C412.509 178.467 404.763 180.52 394.496 180.52ZM444.62 179.12C440.42 179.12 437.434 178.513 435.66 177.3C433.887 175.993 432.814 174.36 432.44 172.4C432.16 170.44 432.02 168.433 432.02 166.38V120.32C432.02 118.267 432.207 116.307 432.58 114.44C432.954 112.573 434.027 111.08 435.8 109.96C437.574 108.747 440.56 108.14 444.76 108.14C448.587 108.14 451.34 108.653 453.02 109.68C454.794 110.613 455.914 111.78 456.38 113.18C456.847 114.58 457.034 115.887 456.94 117.1C456.94 118.22 457.034 118.92 457.22 119.2L456.1 120.04C456.007 118.64 456.52 117.24 457.64 115.84C458.854 114.44 460.394 113.18 462.26 112.06C464.22 110.847 466.274 109.913 468.42 109.26C470.66 108.513 472.76 108.14 474.72 108.14C479.387 108.14 483.494 109.027 487.04 110.8C490.587 112.573 493.527 115.093 495.86 118.36C498.287 121.533 500.107 125.267 501.32 129.56C502.534 133.853 503.14 138.52 503.14 143.56V166.52C503.14 168.573 502.954 170.58 502.58 172.54C502.207 174.5 501.134 176.087 499.36 177.3C497.68 178.513 494.694 179.12 490.4 179.12C486.107 179.12 483.074 178.513 481.3 177.3C479.527 175.993 478.454 174.36 478.08 172.4C477.707 170.44 477.52 168.433 477.52 166.38V143.56C477.52 141.413 477.1 139.593 476.26 138.1C475.514 136.607 474.394 135.487 472.9 134.74C471.5 133.9 469.727 133.48 467.58 133.48C465.527 133.48 463.707 133.9 462.12 134.74C460.627 135.58 459.46 136.747 458.62 138.24C457.78 139.733 457.36 141.507 457.36 143.56V166.52C457.36 168.573 457.174 170.58 456.8 172.54C456.427 174.5 455.354 176.087 453.58 177.3C451.9 178.513 448.914 179.12 444.62 179.12ZM568.157 178.98C563.957 178.98 560.831 178.28 558.777 176.88C556.817 175.48 555.884 173.893 555.977 172.12H557.937C557.471 172.773 556.537 173.66 555.137 174.78C553.831 175.807 552.057 176.787 549.817 177.72C547.577 178.56 544.824 178.98 541.557 178.98C537.357 178.98 533.297 178.047 529.377 176.18C525.551 174.22 522.097 171.56 519.017 168.2C516.031 164.84 513.651 161.06 511.877 156.86C510.104 152.567 509.217 148.087 509.217 143.42C509.217 138.847 510.104 134.46 511.877 130.26C513.651 126.06 516.077 122.327 519.157 119.06C522.237 115.7 525.691 113.087 529.517 111.22C533.344 109.26 537.357 108.28 541.557 108.28C544.731 108.28 547.391 108.747 549.537 109.68C551.777 110.613 553.551 111.64 554.857 112.76C556.257 113.88 557.191 114.813 557.657 115.56H556.117C556.024 113.227 556.957 111.407 558.917 110.1C560.971 108.793 564.097 108.14 568.297 108.14C572.497 108.14 575.437 108.793 577.117 110.1C578.891 111.313 579.964 112.9 580.337 114.86C580.711 116.82 580.897 118.827 580.897 120.88V166.38C580.897 168.433 580.711 170.44 580.337 172.4C579.964 174.36 578.891 175.947 577.117 177.16C575.437 178.373 572.451 178.98 568.157 178.98ZM545.057 153.64C546.831 153.64 548.417 153.173 549.817 152.24C551.311 151.307 552.477 150.093 553.317 148.6C554.251 147.013 554.717 145.333 554.717 143.56C554.717 141.693 554.251 140.013 553.317 138.52C552.477 137.027 551.311 135.813 549.817 134.88C548.324 133.947 546.644 133.48 544.777 133.48C542.911 133.48 541.184 133.947 539.597 134.88C538.104 135.813 536.891 137.073 535.957 138.66C535.024 140.153 534.557 141.833 534.557 143.7C534.557 145.473 535.024 147.107 535.957 148.6C536.984 150.093 538.291 151.307 539.877 152.24C541.464 153.173 543.191 153.64 545.057 153.64ZM626.627 179.26C620.467 179.26 615.24 178.187 610.947 176.04C606.654 173.8 603.34 170.58 601.007 166.38C598.767 162.18 597.647 157.093 597.647 151.12V133.34L594.287 133.62C591.207 133.62 589.014 132.64 587.707 130.68C586.4 128.627 585.747 125.36 585.747 120.88C585.747 116.493 586.447 113.32 587.847 111.36C589.247 109.307 591.534 108.28 594.707 108.28L597.647 108.56V96.8C597.647 94.6533 597.834 92.6933 598.207 90.92C598.58 89.0533 599.654 87.56 601.427 86.44C603.2 85.2267 606.187 84.62 610.387 84.62C614.494 84.62 617.434 85.2733 619.207 86.58C620.98 87.7933 622.054 89.38 622.427 91.34C622.8 93.3 622.987 95.3067 622.987 97.36V108.42C624.014 108.42 625.46 108.42 627.327 108.42C629.287 108.327 631.247 108.28 633.207 108.28C635.167 108.28 636.987 108.327 638.667 108.42C640.347 108.42 641.654 108.42 642.587 108.42V96.8C642.587 94.6533 642.774 92.6933 643.147 90.92C643.52 89.0533 644.594 87.56 646.367 86.44C648.14 85.2267 651.127 84.62 655.327 84.62C659.434 84.62 662.327 85.2733 664.007 86.58C665.78 87.7933 666.854 89.38 667.227 91.34C667.6 93.3 667.787 95.3067 667.787 97.36V108.7L675.207 108.28C677.26 108.28 679.22 108.467 681.087 108.84C683.047 109.213 684.634 110.287 685.847 112.06C687.154 113.833 687.807 116.867 687.807 121.16C687.807 125.36 687.154 128.347 685.847 130.12C684.54 131.893 682.907 132.967 680.947 133.34C679.08 133.62 677.12 133.76 675.067 133.76L667.787 133.34V149.86C667.787 151.26 667.88 152.333 668.067 153.08C668.347 153.827 668.767 154.387 669.327 154.76C669.887 155.04 670.634 155.18 671.567 155.18C674.087 155.18 676.28 155.367 678.147 155.74C680.107 156.113 681.6 157.093 682.627 158.68C683.747 160.267 684.307 162.927 684.307 166.66C684.307 170.86 683.654 173.847 682.347 175.62C681.04 177.393 679.407 178.42 677.447 178.7C675.487 179.073 673.527 179.26 671.567 179.26C665.407 179.26 660.134 178.187 655.747 176.04C651.454 173.8 648.187 170.58 645.947 166.38C643.707 162.18 642.587 157.093 642.587 151.12V133.34C641.934 133.34 641.047 133.387 639.927 133.48C638.9 133.573 637.827 133.667 636.707 133.76C635.587 133.76 634.514 133.76 633.487 133.76C631.994 133.76 630.174 133.713 628.027 133.62C625.88 133.527 624.2 133.433 622.987 133.34V149.86C622.987 151.26 623.08 152.333 623.267 153.08C623.547 153.827 623.967 154.387 624.527 154.76C625.087 155.04 625.834 155.18 626.767 155.18C629.194 155.18 631.34 155.367 633.207 155.74C635.167 156.113 636.66 157.093 637.687 158.68C638.807 160.267 639.367 162.927 639.367 166.66C639.367 170.86 638.714 173.847 637.407 175.62C636.1 177.393 634.467 178.42 632.507 178.7C630.547 179.073 628.587 179.26 626.627 179.26ZM728.726 180.8C721.726 180.8 715.8 179.68 710.946 177.44C706.093 175.107 702.173 172.12 699.186 168.48C696.2 164.747 694.006 160.733 692.606 156.44C691.206 152.147 690.506 147.993 690.506 143.98C690.506 136.607 692.14 130.12 695.406 124.52C698.673 118.92 703.2 114.533 708.986 111.36C714.773 108.187 721.4 106.6 728.866 106.6C734.653 106.6 739.6 107.533 743.706 109.4C747.813 111.267 751.126 113.647 753.646 116.54C756.26 119.433 758.173 122.513 759.386 125.78C760.6 129.047 761.206 132.08 761.206 134.88C761.206 140.2 759.9 144.26 757.286 147.06C754.673 149.86 751.313 151.26 747.206 151.26H717.386C717.76 152.753 718.506 154.06 719.626 155.18C720.84 156.207 722.333 157.047 724.106 157.7C725.88 158.26 727.793 158.54 729.846 158.54C731.9 158.54 733.72 158.447 735.306 158.26C736.893 157.98 738.246 157.653 739.366 157.28C740.58 156.907 741.653 156.533 742.586 156.16C743.613 155.787 744.5 155.507 745.246 155.32C746.086 155.04 746.88 154.9 747.626 154.9C749.306 154.9 750.846 155.46 752.246 156.58C753.646 157.7 754.906 159.38 756.026 161.62C756.68 162.833 757.146 164 757.426 165.12C757.706 166.147 757.846 167.127 757.846 168.06C757.846 170.86 756.68 173.193 754.346 175.06C752.106 176.927 748.84 178.327 744.546 179.26C740.253 180.287 734.98 180.8 728.726 180.8ZM717.386 138.1H733.066C734.373 138.1 735.306 137.82 735.866 137.26C736.52 136.7 736.846 135.86 736.846 134.74C736.846 133.527 736.473 132.5 735.726 131.66C735.073 130.82 734.14 130.213 732.926 129.84C731.713 129.373 730.266 129.14 728.586 129.14C726.346 129.14 724.386 129.607 722.706 130.54C721.026 131.38 719.72 132.5 718.786 133.9C717.946 135.207 717.48 136.607 717.386 138.1ZM780.128 179.26C775.928 179.26 772.941 178.653 771.168 177.44C769.395 176.133 768.321 174.5 767.948 172.54C767.668 170.487 767.528 168.433 767.528 166.38V120.74C767.528 118.593 767.715 116.587 768.088 114.72C768.461 112.76 769.535 111.173 771.308 109.96C773.081 108.747 776.068 108.14 780.268 108.14C784.375 108.14 787.268 108.7 788.948 109.82C790.721 110.94 791.795 112.2 792.168 113.6C792.541 114.907 792.728 115.933 792.728 116.68L790.488 115.84C790.488 115.84 790.861 115.42 791.608 114.58C792.355 113.74 793.428 112.76 794.828 111.64C796.321 110.52 798.048 109.54 800.008 108.7C802.061 107.86 804.348 107.44 806.868 107.44C807.708 107.44 808.735 107.533 809.948 107.72C811.255 107.813 812.608 108.047 814.008 108.42C815.501 108.793 816.855 109.353 818.068 110.1C819.375 110.847 820.401 111.827 821.148 113.04C821.988 114.253 822.408 115.747 822.408 117.52C822.408 122.187 821.381 126.153 819.328 129.42C817.368 132.687 814.755 134.32 811.488 134.32C809.715 134.32 808.455 134.227 807.708 134.04C806.961 133.76 806.401 133.527 806.028 133.34C805.748 133.06 805.375 132.827 804.908 132.64C804.535 132.36 803.788 132.22 802.668 132.22C801.268 132.22 799.961 132.407 798.748 132.78C797.628 133.06 796.601 133.527 795.668 134.18C794.828 134.833 794.175 135.627 793.708 136.56C793.241 137.4 793.008 138.333 793.008 139.36V166.66C793.008 168.713 792.821 170.72 792.448 172.68C792.075 174.64 791.001 176.227 789.228 177.44C787.455 178.653 784.421 179.26 780.128 179.26ZM825.213 179.4C820.266 179.4 816.766 178.42 814.713 176.46C812.753 174.5 811.773 171.093 811.773 166.24C811.773 162.787 812.193 160.08 813.033 158.12C813.966 156.16 815.413 154.76 817.373 153.92C819.333 152.987 821.993 152.52 825.353 152.52C830.299 152.52 833.753 153.547 835.713 155.6C837.673 157.56 838.653 161.06 838.653 166.1C838.653 169.367 838.233 171.98 837.393 173.94C836.553 175.9 835.153 177.3 833.193 178.14C831.233 178.98 828.573 179.4 825.213 179.4Z" fill="url(#paint0_linear_263_1138)"/>
<path d="M128.8 179.12C124.6 179.12 121.613 178.513 119.84 177.3C118.067 175.993 116.993 174.36 116.62 172.4C116.34 170.44 116.2 168.433 116.2 166.38V120.32C116.2 118.267 116.387 116.307 116.76 114.44C117.133 112.573 118.207 111.08 119.98 109.96C121.753 108.747 124.74 108.14 128.94 108.14C132.767 108.14 135.52 108.653 137.2 109.68C138.973 110.613 140.093 111.78 140.56 113.18C141.027 114.58 141.213 115.887 141.12 117.1C141.12 118.22 141.213 118.92 141.4 119.2L140.28 120.04C140.187 118.64 140.7 117.24 141.82 115.84C143.033 114.44 144.573 113.18 146.44 112.06C148.4 110.847 150.453 109.913 152.6 109.26C154.84 108.513 156.94 108.14 158.9 108.14C163.567 108.14 167.673 109.027 171.22 110.8C174.767 112.573 177.707 115.093 180.04 118.36C182.467 121.533 184.287 125.267 185.5 129.56C186.713 133.853 187.32 138.52 187.32 143.56V166.52C187.32 168.573 187.133 170.58 186.76 172.54C186.387 174.5 185.313 176.087 183.54 177.3C181.86 178.513 178.873 179.12 174.58 179.12C170.287 179.12 167.253 178.513 165.48 177.3C163.707 175.993 162.633 174.36 162.26 172.4C161.887 170.44 161.7 168.433 161.7 166.38V143.56C161.7 141.413 161.28 139.593 160.44 138.1C159.693 136.607 158.573 135.487 157.08 134.74C155.68 133.9 153.907 133.48 151.76 133.48C149.707 133.48 147.887 133.9 146.3 134.74C144.807 135.58 143.64 136.747 142.8 138.24C141.96 139.733 141.54 141.507 141.54 143.56V166.52C141.54 168.573 141.353 170.58 140.98 172.54C140.607 174.5 139.533 176.087 137.76 177.3C136.08 178.513 133.093 179.12 128.8 179.12ZM231.617 180.8C224.617 180.8 218.69 179.68 213.837 177.44C208.984 175.107 205.064 172.12 202.077 168.48C199.09 164.747 196.897 160.733 195.497 156.44C194.097 152.147 193.397 147.993 193.397 143.98C193.397 136.607 195.03 130.12 198.297 124.52C201.564 118.92 206.09 114.533 211.877 111.36C217.664 108.187 224.29 106.6 231.757 106.6C237.544 106.6 242.49 107.533 246.597 109.4C250.704 111.267 254.017 113.647 256.537 116.54C259.15 119.433 261.064 122.513 262.277 125.78C263.49 129.047 264.097 132.08 264.097 134.88C264.097 140.2 262.79 144.26 260.177 147.06C257.564 149.86 254.204 151.26 250.097 151.26H220.277C220.65 152.753 221.397 154.06 222.517 155.18C223.73 156.207 225.224 157.047 226.997 157.7C228.77 158.26 230.684 158.54 232.737 158.54C234.79 158.54 236.61 158.447 238.197 158.26C239.784 157.98 241.137 157.653 242.257 157.28C243.47 156.907 244.544 156.533 245.477 156.16C246.504 155.787 247.39 155.507 248.137 155.32C248.977 155.04 249.77 154.9 250.517 154.9C252.197 154.9 253.737 155.46 255.137 156.58C256.537 157.7 257.797 159.38 258.917 161.62C259.57 162.833 260.037 164 260.317 165.12C260.597 166.147 260.737 167.127 260.737 168.06C260.737 170.86 259.57 173.193 257.237 175.06C254.997 176.927 251.73 178.327 247.437 179.26C243.144 180.287 237.87 180.8 231.617 180.8ZM220.277 138.1H235.957C237.264 138.1 238.197 137.82 238.757 137.26C239.41 136.7 239.737 135.86 239.737 134.74C239.737 133.527 239.364 132.5 238.617 131.66C237.964 130.82 237.03 130.213 235.817 129.84C234.604 129.373 233.157 129.14 231.477 129.14C229.237 129.14 227.277 129.607 225.597 130.54C223.917 131.38 222.61 132.5 221.677 133.9C220.837 135.207 220.37 136.607 220.277 138.1ZM294.88 179.68C291.894 179.68 289.56 179.073 287.88 177.86C286.294 176.647 285.127 175.247 284.38 173.66C283.634 172.073 283.027 170.767 282.56 169.74L263.94 123.96C263.194 121.347 262.82 119.153 262.82 117.38C262.914 115.513 263.567 113.927 264.78 112.62C266.087 111.313 268.094 110.147 270.8 109.12C275.094 107.253 278.594 106.74 281.3 107.58C284.1 108.327 286.107 110.567 287.32 114.3L294.88 135.16L301.46 117.1C301.834 116.167 302.394 115 303.14 113.6C303.887 112.2 305.054 110.94 306.64 109.82C308.32 108.607 310.56 108 313.36 108C316.44 108 318.82 108.607 320.5 109.82C322.18 110.94 323.44 112.247 324.28 113.74C325.12 115.14 325.68 116.307 325.96 117.24L332.4 135.16L339.12 116.54C340.707 112.433 342.76 109.633 345.28 108.14C347.894 106.647 351.3 106.833 355.5 108.7C359.42 110.473 362.127 112.62 363.62 115.14C365.114 117.567 365.02 120.6 363.34 124.24L344.58 169.74C344.114 170.86 343.507 172.213 342.76 173.8C342.014 175.387 340.847 176.787 339.26 178C337.674 179.12 335.434 179.68 332.54 179.68C329.554 179.68 327.267 179.167 325.68 178.14C324.094 177.113 322.88 175.853 322.04 174.36C321.294 172.773 320.64 171.233 320.08 169.74L313.64 152.52L307.2 169.74C306.454 171.7 305.754 173.427 305.1 174.92C304.447 176.413 303.374 177.58 301.88 178.42C300.387 179.26 298.054 179.68 294.88 179.68ZM394.496 180.52C391.883 180.52 388.943 180.193 385.676 179.54C382.503 178.98 379.376 178.14 376.296 177.02C373.309 175.807 370.836 174.407 368.876 172.82C366.916 171.233 365.936 169.413 365.936 167.36C365.936 166.427 366.123 165.4 366.496 164.28C366.963 163.067 367.569 161.76 368.316 160.36C369.063 158.96 369.996 157.467 371.116 155.88C371.769 154.947 372.516 154.247 373.356 153.78C374.289 153.313 375.363 153.08 376.576 153.08C378.256 153.08 379.889 153.453 381.476 154.2C383.063 154.853 384.649 155.647 386.236 156.58C387.823 157.42 389.456 158.213 391.136 158.96C392.909 159.613 394.776 159.94 396.736 159.94C398.509 159.94 399.816 159.753 400.656 159.38C401.589 159.007 402.056 158.447 402.056 157.7C402.056 156.953 401.729 156.347 401.076 155.88C400.516 155.413 399.676 155.04 398.556 154.76C397.529 154.387 396.316 154.06 394.916 153.78C393.516 153.5 392.023 153.173 390.436 152.8C388.849 152.427 387.216 151.96 385.536 151.4C383.389 150.747 381.289 149.907 379.236 148.88C377.183 147.76 375.316 146.313 373.636 144.54C372.049 142.767 370.743 140.62 369.716 138.1C368.783 135.58 368.316 132.5 368.316 128.86C368.316 124.007 369.436 119.947 371.676 116.68C373.916 113.413 377.229 110.94 381.616 109.26C386.003 107.58 391.416 106.74 397.856 106.74C399.443 106.74 401.029 106.833 402.616 107.02C404.203 107.207 405.789 107.487 407.376 107.86C409.056 108.233 410.689 108.747 412.276 109.4C413.956 109.96 415.636 110.613 417.316 111.36C420.769 112.853 422.543 114.953 422.636 117.66C422.729 120.273 421.749 123.027 419.696 125.92C418.576 127.693 417.409 129.047 416.196 129.98C415.076 130.82 413.909 131.24 412.696 131.24C411.203 131.24 409.569 130.82 407.796 129.98C406.023 129.14 404.156 128.3 402.196 127.46C400.236 126.62 398.276 126.2 396.316 126.2C395.196 126.2 394.216 126.34 393.376 126.62C392.629 126.807 392.069 127.133 391.696 127.6C391.323 127.973 391.136 128.44 391.136 129C391.136 130.027 391.463 130.867 392.116 131.52C392.863 132.08 393.796 132.547 394.916 132.92C396.129 133.293 397.483 133.62 398.976 133.9C400.563 134.18 402.243 134.46 404.016 134.74C406.443 135.113 408.916 135.72 411.436 136.56C414.049 137.307 416.429 138.427 418.576 139.92C420.723 141.413 422.449 143.467 423.756 146.08C425.063 148.693 425.716 152.1 425.716 156.3C425.716 164.233 423.056 170.253 417.736 174.36C412.509 178.467 404.763 180.52 394.496 180.52ZM444.62 179.12C440.42 179.12 437.434 178.513 435.66 177.3C433.887 175.993 432.814 174.36 432.44 172.4C432.16 170.44 432.02 168.433 432.02 166.38V120.32C432.02 118.267 432.207 116.307 432.58 114.44C432.954 112.573 434.027 111.08 435.8 109.96C437.574 108.747 440.56 108.14 444.76 108.14C448.587 108.14 451.34 108.653 453.02 109.68C454.794 110.613 455.914 111.78 456.38 113.18C456.847 114.58 457.034 115.887 456.94 117.1C456.94 118.22 457.034 118.92 457.22 119.2L456.1 120.04C456.007 118.64 456.52 117.24 457.64 115.84C458.854 114.44 460.394 113.18 462.26 112.06C464.22 110.847 466.274 109.913 468.42 109.26C470.66 108.513 472.76 108.14 474.72 108.14C479.387 108.14 483.494 109.027 487.04 110.8C490.587 112.573 493.527 115.093 495.86 118.36C498.287 121.533 500.107 125.267 501.32 129.56C502.534 133.853 503.14 138.52 503.14 143.56V166.52C503.14 168.573 502.954 170.58 502.58 172.54C502.207 174.5 501.134 176.087 499.36 177.3C497.68 178.513 494.694 179.12 490.4 179.12C486.107 179.12 483.074 178.513 481.3 177.3C479.527 175.993 478.454 174.36 478.08 172.4C477.707 170.44 477.52 168.433 477.52 166.38V143.56C477.52 141.413 477.1 139.593 476.26 138.1C475.514 136.607 474.394 135.487 472.9 134.74C471.5 133.9 469.727 133.48 467.58 133.48C465.527 133.48 463.707 133.9 462.12 134.74C460.627 135.58 459.46 136.747 458.62 138.24C457.78 139.733 457.36 141.507 457.36 143.56V166.52C457.36 168.573 457.174 170.58 456.8 172.54C456.427 174.5 455.354 176.087 453.58 177.3C451.9 178.513 448.914 179.12 444.62 179.12ZM568.157 178.98C563.957 178.98 560.831 178.28 558.777 176.88C556.817 175.48 555.884 173.893 555.977 172.12H557.937C557.471 172.773 556.537 173.66 555.137 174.78C553.831 175.807 552.057 176.787 549.817 177.72C547.577 178.56 544.824 178.98 541.557 178.98C537.357 178.98 533.297 178.047 529.377 176.18C525.551 174.22 522.097 171.56 519.017 168.2C516.031 164.84 513.651 161.06 511.877 156.86C510.104 152.567 509.217 148.087 509.217 143.42C509.217 138.847 510.104 134.46 511.877 130.26C513.651 126.06 516.077 122.327 519.157 119.06C522.237 115.7 525.691 113.087 529.517 111.22C533.344 109.26 537.357 108.28 541.557 108.28C544.731 108.28 547.391 108.747 549.537 109.68C551.777 110.613 553.551 111.64 554.857 112.76C556.257 113.88 557.191 114.813 557.657 115.56H556.117C556.024 113.227 556.957 111.407 558.917 110.1C560.971 108.793 564.097 108.14 568.297 108.14C572.497 108.14 575.437 108.793 577.117 110.1C578.891 111.313 579.964 112.9 580.337 114.86C580.711 116.82 580.897 118.827 580.897 120.88V166.38C580.897 168.433 580.711 170.44 580.337 172.4C579.964 174.36 578.891 175.947 577.117 177.16C575.437 178.373 572.451 178.98 568.157 178.98ZM545.057 153.64C546.831 153.64 548.417 153.173 549.817 152.24C551.311 151.307 552.477 150.093 553.317 148.6C554.251 147.013 554.717 145.333 554.717 143.56C554.717 141.693 554.251 140.013 553.317 138.52C552.477 137.027 551.311 135.813 549.817 134.88C548.324 133.947 546.644 133.48 544.777 133.48C542.911 133.48 541.184 133.947 539.597 134.88C538.104 135.813 536.891 137.073 535.957 138.66C535.024 140.153 534.557 141.833 534.557 143.7C534.557 145.473 535.024 147.107 535.957 148.6C536.984 150.093 538.291 151.307 539.877 152.24C541.464 153.173 543.191 153.64 545.057 153.64ZM626.627 179.26C620.467 179.26 615.24 178.187 610.947 176.04C606.654 173.8 603.34 170.58 601.007 166.38C598.767 162.18 597.647 157.093 597.647 151.12V133.34L594.287 133.62C591.207 133.62 589.014 132.64 587.707 130.68C586.4 128.627 585.747 125.36 585.747 120.88C585.747 116.493 586.447 113.32 587.847 111.36C589.247 109.307 591.534 108.28 594.707 108.28L597.647 108.56V96.8C597.647 94.6533 597.834 92.6933 598.207 90.92C598.58 89.0533 599.654 87.56 601.427 86.44C603.2 85.2267 606.187 84.62 610.387 84.62C614.494 84.62 617.434 85.2733 619.207 86.58C620.98 87.7933 622.054 89.38 622.427 91.34C622.8 93.3 622.987 95.3067 622.987 97.36V108.42C624.014 108.42 625.46 108.42 627.327 108.42C629.287 108.327 631.247 108.28 633.207 108.28C635.167 108.28 636.987 108.327 638.667 108.42C640.347 108.42 641.654 108.42 642.587 108.42V96.8C642.587 94.6533 642.774 92.6933 643.147 90.92C643.52 89.0533 644.594 87.56 646.367 86.44C648.14 85.2267 651.127 84.62 655.327 84.62C659.434 84.62 662.327 85.2733 664.007 86.58C665.78 87.7933 666.854 89.38 667.227 91.34C667.6 93.3 667.787 95.3067 667.787 97.36V108.7L675.207 108.28C677.26 108.28 679.22 108.467 681.087 108.84C683.047 109.213 684.634 110.287 685.847 112.06C687.154 113.833 687.807 116.867 687.807 121.16C687.807 125.36 687.154 128.347 685.847 130.12C684.54 131.893 682.907 132.967 680.947 133.34C679.08 133.62 677.12 133.76 675.067 133.76L667.787 133.34V149.86C667.787 151.26 667.88 152.333 668.067 153.08C668.347 153.827 668.767 154.387 669.327 154.76C669.887 155.04 670.634 155.18 671.567 155.18C674.087 155.18 676.28 155.367 678.147 155.74C680.107 156.113 681.6 157.093 682.627 158.68C683.747 160.267 684.307 162.927 684.307 166.66C684.307 170.86 683.654 173.847 682.347 175.62C681.04 177.393 679.407 178.42 677.447 178.7C675.487 179.073 673.527 179.26 671.567 179.26C665.407 179.26 660.134 178.187 655.747 176.04C651.454 173.8 648.187 170.58 645.947 166.38C643.707 162.18 642.587 157.093 642.587 151.12V133.34C641.934 133.34 641.047 133.387 639.927 133.48C638.9 133.573 637.827 133.667 636.707 133.76C635.587 133.76 634.514 133.76 633.487 133.76C631.994 133.76 630.174 133.713 628.027 133.62C625.88 133.527 624.2 133.433 622.987 133.34V149.86C622.987 151.26 623.08 152.333 623.267 153.08C623.547 153.827 623.967 154.387 624.527 154.76C625.087 155.04 625.834 155.18 626.767 155.18C629.194 155.18 631.34 155.367 633.207 155.74C635.167 156.113 636.66 157.093 637.687 158.68C638.807 160.267 639.367 162.927 639.367 166.66C639.367 170.86 638.714 173.847 637.407 175.62C636.1 177.393 634.467 178.42 632.507 178.7C630.547 179.073 628.587 179.26 626.627 179.26ZM728.726 180.8C721.726 180.8 715.8 179.68 710.946 177.44C706.093 175.107 702.173 172.12 699.186 168.48C696.2 164.747 694.006 160.733 692.606 156.44C691.206 152.147 690.506 147.993 690.506 143.98C690.506 136.607 692.14 130.12 695.406 124.52C698.673 118.92 703.2 114.533 708.986 111.36C714.773 108.187 721.4 106.6 728.866 106.6C734.653 106.6 739.6 107.533 743.706 109.4C747.813 111.267 751.126 113.647 753.646 116.54C756.26 119.433 758.173 122.513 759.386 125.78C760.6 129.047 761.206 132.08 761.206 134.88C761.206 140.2 759.9 144.26 757.286 147.06C754.673 149.86 751.313 151.26 747.206 151.26H717.386C717.76 152.753 718.506 154.06 719.626 155.18C720.84 156.207 722.333 157.047 724.106 157.7C725.88 158.26 727.793 158.54 729.846 158.54C731.9 158.54 733.72 158.447 735.306 158.26C736.893 157.98 738.246 157.653 739.366 157.28C740.58 156.907 741.653 156.533 742.586 156.16C743.613 155.787 744.5 155.507 745.246 155.32C746.086 155.04 746.88 154.9 747.626 154.9C749.306 154.9 750.846 155.46 752.246 156.58C753.646 157.7 754.906 159.38 756.026 161.62C756.68 162.833 757.146 164 757.426 165.12C757.706 166.147 757.846 167.127 757.846 168.06C757.846 170.86 756.68 173.193 754.346 175.06C752.106 176.927 748.84 178.327 744.546 179.26C740.253 180.287 734.98 180.8 728.726 180.8ZM717.386 138.1H733.066C734.373 138.1 735.306 137.82 735.866 137.26C736.52 136.7 736.846 135.86 736.846 134.74C736.846 133.527 736.473 132.5 735.726 131.66C735.073 130.82 734.14 130.213 732.926 129.84C731.713 129.373 730.266 129.14 728.586 129.14C726.346 129.14 724.386 129.607 722.706 130.54C721.026 131.38 719.72 132.5 718.786 133.9C717.946 135.207 717.48 136.607 717.386 138.1ZM780.128 179.26C775.928 179.26 772.941 178.653 771.168 177.44C769.395 176.133 768.321 174.5 767.948 172.54C767.668 170.487 767.528 168.433 767.528 166.38V120.74C767.528 118.593 767.715 116.587 768.088 114.72C768.461 112.76 769.535 111.173 771.308 109.96C773.081 108.747 776.068 108.14 780.268 108.14C784.375 108.14 787.268 108.7 788.948 109.82C790.721 110.94 791.795 112.2 792.168 113.6C792.541 114.907 792.728 115.933 792.728 116.68L790.488 115.84C790.488 115.84 790.861 115.42 791.608 114.58C792.355 113.74 793.428 112.76 794.828 111.64C796.321 110.52 798.048 109.54 800.008 108.7C802.061 107.86 804.348 107.44 806.868 107.44C807.708 107.44 808.735 107.533 809.948 107.72C811.255 107.813 812.608 108.047 814.008 108.42C815.501 108.793 816.855 109.353 818.068 110.1C819.375 110.847 820.401 111.827 821.148 113.04C821.988 114.253 822.408 115.747 822.408 117.52C822.408 122.187 821.381 126.153 819.328 129.42C817.368 132.687 814.755 134.32 811.488 134.32C809.715 134.32 808.455 134.227 807.708 134.04C806.961 133.76 806.401 133.527 806.028 133.34C805.748 133.06 805.375 132.827 804.908 132.64C804.535 132.36 803.788 132.22 802.668 132.22C801.268 132.22 799.961 132.407 798.748 132.78C797.628 133.06 796.601 133.527 795.668 134.18C794.828 134.833 794.175 135.627 793.708 136.56C793.241 137.4 793.008 138.333 793.008 139.36V166.66C793.008 168.713 792.821 170.72 792.448 172.68C792.075 174.64 791.001 176.227 789.228 177.44C787.455 178.653 784.421 179.26 780.128 179.26ZM825.213 179.4C820.266 179.4 816.766 178.42 814.713 176.46C812.753 174.5 811.773 171.093 811.773 166.24C811.773 162.787 812.193 160.08 813.033 158.12C813.966 156.16 815.413 154.76 817.373 153.92C819.333 152.987 821.993 152.52 825.353 152.52C830.299 152.52 833.753 153.547 835.713 155.6C837.673 157.56 838.653 161.06 838.653 166.1C838.653 169.367 838.233 171.98 837.393 173.94C836.553 175.9 835.153 177.3 833.193 178.14C831.233 178.98 828.573 179.4 825.213 179.4Z" fill="black" fill-opacity="0.2"/>
<g clip-path="url(#clip0_263_1138)">
<path d="M30.3573 100.589C27.4427 94.2233 27.1719 86.9617 29.6044 80.397C32.0368 73.8323 36.9739 68.5004 43.3325 65.5711L61.6435 57.1611C63.1865 56.3351 85.0689 44.1669 98.3639 16.0994C99.1903 14.3522 100.498 12.8772 102.134 11.8474C103.769 10.8177 105.665 10.2761 107.598 10.2861C109.53 10.2962 111.42 10.8576 113.045 11.9043C114.67 12.951 115.962 14.4396 116.77 16.1953L150.682 90.0302C151.501 91.7835 151.796 93.7358 151.533 95.6529C151.269 97.57 150.458 99.3703 149.197 100.838C147.951 102.32 146.304 103.412 144.454 103.983C142.603 104.555 140.628 104.581 138.763 104.06C123.421 99.8387 107.282 99.4182 91.7405 102.835L105.427 129.387C106.125 130.906 106.437 132.574 106.336 134.242C106.235 135.911 105.723 137.529 104.847 138.952C104.705 139.184 104.548 139.406 104.375 139.616L99.2078 145.934C98.3147 147.237 97.1301 148.314 95.7479 149.079C94.3658 149.844 92.8243 150.276 91.246 150.341C89.6676 150.405 88.096 150.101 86.6559 149.452C85.2159 148.802 83.9471 147.826 82.9505 146.6L60.8356 115.19C54.8498 116.696 48.5257 116.061 42.9592 113.394C37.3928 110.727 32.9346 106.197 30.3573 100.589ZM137.833 91.2544L107.476 25.1584C96.7336 45.7778 82.2466 58.0364 73.8502 63.8821L86.5542 91.5425C96.4512 88.964 115.19 85.9625 137.833 91.2544ZM90.8045 136.958L93.8073 133.288L80.1418 106.781L72.5737 110.257L90.8045 136.958ZM60.2881 102.489L75.0551 95.7063L63.1861 69.8641L48.4192 76.6463C44.9923 78.2203 42.331 81.091 41.0207 84.6272C39.7105 88.1633 39.8586 92.075 41.4326 95.5019C43.0065 98.9288 45.8773 101.59 49.4134 102.9C52.9495 104.211 56.8612 104.062 60.2881 102.489Z" fill="#B72040"/>
</g>
<path d="M148 48L168 38" stroke="#B61E40" stroke-width="7" stroke-linecap="round"/>
<path d="M142 35.5378L154.504 17" stroke="#B61E40" stroke-width="7" stroke-linecap="round"/>
<path d="M153 60.3374L175.238 58.0001" stroke="#B61E40" stroke-width="7" stroke-linecap="round"/>
<g clip-path="url(#clip1_263_1138)">
<path d="M216.673 39.3734C216.614 39.5014 216.517 39.6078 216.394 39.6777C216.272 39.7477 216.131 39.7778 215.99 39.7639L213.102 39.4977L211.043 41.5402C210.943 41.6383 210.815 41.7035 210.676 41.7268C210.538 41.7501 210.396 41.7305 210.269 41.6707C210.142 41.6108 210.036 41.5135 209.966 41.3919C209.896 41.2703 209.865 41.1301 209.877 40.9903L210.144 38.1022L208.101 36.0432C208.003 35.9429 207.938 35.815 207.914 35.6766C207.891 35.5382 207.911 35.396 207.97 35.269C208.03 35.1421 208.128 35.0365 208.249 34.9665C208.371 34.8965 208.511 34.8653 208.651 34.8773L211.539 35.1439L213.598 33.101C213.698 33.0028 213.826 32.9377 213.965 32.9144C214.103 32.8911 214.245 32.9106 214.372 32.9705C214.499 33.0304 214.605 33.1276 214.675 33.2493C214.745 33.3709 214.776 33.511 214.764 33.6509L214.498 36.5392L216.54 38.598C216.64 38.6974 216.707 38.8255 216.731 38.9644C216.754 39.1034 216.734 39.2463 216.673 39.3734Z" fill="url(#paint1_linear_263_1138)"/>
<path d="M216.673 39.3734C216.614 39.5014 216.517 39.6078 216.394 39.6777C216.272 39.7477 216.131 39.7778 215.99 39.7639L213.102 39.4977L211.043 41.5402C210.943 41.6383 210.815 41.7035 210.676 41.7268C210.538 41.7501 210.396 41.7305 210.269 41.6707C210.142 41.6108 210.036 41.5135 209.966 41.3919C209.896 41.2703 209.865 41.1301 209.877 40.9903L210.144 38.1022L208.101 36.0432C208.003 35.9429 207.938 35.815 207.914 35.6766C207.891 35.5382 207.911 35.396 207.97 35.269C208.03 35.1421 208.128 35.0365 208.249 34.9665C208.371 34.8965 208.511 34.8653 208.651 34.8773L211.539 35.1439L213.598 33.101C213.698 33.0028 213.826 32.9377 213.965 32.9144C214.103 32.8911 214.245 32.9106 214.372 32.9705C214.499 33.0304 214.605 33.1276 214.675 33.2493C214.745 33.3709 214.776 33.511 214.764 33.6509L214.498 36.5392L216.54 38.598C216.64 38.6974 216.707 38.8255 216.731 38.9644C216.754 39.1034 216.734 39.2463 216.673 39.3734Z" fill="black" fill-opacity="0.2"/>
</g>
<g clip-path="url(#clip2_263_1138)">
<path d="M180.519 21.1702C180.543 21.274 180.534 21.3827 180.494 21.4813C180.453 21.58 180.383 21.6635 180.293 21.7204L178.447 22.9042L178.169 25.0787C178.155 25.1839 178.109 25.2822 178.037 25.3604C177.966 25.4386 177.872 25.493 177.768 25.5164C177.665 25.5397 177.557 25.5307 177.458 25.4908C177.36 25.4508 177.276 25.3817 177.219 25.2928L176.035 23.4471L173.86 23.1692C173.755 23.155 173.657 23.109 173.579 23.0373C173.5 22.9657 173.446 22.8718 173.423 22.7683C173.399 22.6648 173.408 22.5567 173.448 22.4584C173.488 22.3601 173.557 22.2764 173.646 22.2185L175.492 21.0351L175.77 18.8602C175.784 18.7551 175.83 18.6568 175.902 18.5786C175.973 18.5003 176.067 18.4459 176.171 18.4226C176.274 18.3993 176.382 18.4082 176.481 18.4482C176.579 18.4881 176.663 18.5572 176.72 18.6461L177.904 20.4918L180.079 20.7698C180.185 20.7826 180.284 20.828 180.363 20.8997C180.441 20.9715 180.496 21.066 180.519 21.1702Z" fill="url(#paint2_linear_263_1138)"/>
<path d="M180.519 21.1702C180.543 21.274 180.534 21.3827 180.494 21.4813C180.453 21.58 180.383 21.6635 180.293 21.7204L178.447 22.9042L178.169 25.0787C178.155 25.1839 178.109 25.2822 178.037 25.3604C177.966 25.4386 177.872 25.493 177.768 25.5164C177.665 25.5397 177.557 25.5307 177.458 25.4908C177.36 25.4508 177.276 25.3817 177.219 25.2928L176.035 23.4471L173.86 23.1692C173.755 23.155 173.657 23.109 173.579 23.0373C173.5 22.9657 173.446 22.8718 173.423 22.7683C173.399 22.6648 173.408 22.5567 173.448 22.4584C173.488 22.3601 173.557 22.2764 173.646 22.2185L175.492 21.0351L175.77 18.8602C175.784 18.7551 175.83 18.6568 175.902 18.5786C175.973 18.5003 176.067 18.4459 176.171 18.4226C176.274 18.3993 176.382 18.4082 176.481 18.4482C176.579 18.4881 176.663 18.5572 176.72 18.6461L177.904 20.4918L180.079 20.7698C180.185 20.7826 180.284 20.828 180.363 20.8997C180.441 20.9715 180.496 21.066 180.519 21.1702Z" fill="black" fill-opacity="0.2"/>
</g>
<g clip-path="url(#clip3_263_1138)">
<path d="M193.455 49.29C193.429 49.3759 193.377 49.4515 193.306 49.5065C193.235 49.5614 193.149 49.5928 193.059 49.5964L191.215 49.684L190.099 51.1532C190.044 51.2239 189.969 51.2763 189.884 51.3032C189.799 51.3302 189.708 51.3304 189.622 51.3039C189.537 51.2774 189.462 51.2254 189.407 51.155C189.352 51.0845 189.32 50.9989 189.315 50.9098L189.228 49.0661L187.758 47.9491C187.688 47.8946 187.635 47.8198 187.608 47.7346C187.582 47.6495 187.581 47.5581 187.608 47.4728C187.634 47.3875 187.686 47.3124 187.757 47.2575C187.827 47.2026 187.913 47.1706 188.002 47.1658L189.846 47.0785L190.963 45.609C191.017 45.5383 191.092 45.486 191.177 45.459C191.262 45.4321 191.354 45.4319 191.439 45.4584C191.524 45.4849 191.599 45.5368 191.654 45.6073C191.709 45.6777 191.741 45.7633 191.746 45.8525L191.833 47.6962L193.303 48.8131C193.374 48.8669 193.428 48.9417 193.455 49.0272C193.482 49.1126 193.482 49.2045 193.455 49.29Z" fill="url(#paint3_linear_263_1138)"/>
<path d="M193.455 49.29C193.429 49.3759 193.377 49.4515 193.306 49.5065C193.235 49.5614 193.149 49.5928 193.059 49.5964L191.215 49.684L190.099 51.1532C190.044 51.2239 189.969 51.2763 189.884 51.3032C189.799 51.3302 189.708 51.3304 189.622 51.3039C189.537 51.2774 189.462 51.2254 189.407 51.155C189.352 51.0845 189.32 50.9989 189.315 50.9098L189.228 49.0661L187.758 47.9491C187.688 47.8946 187.635 47.8198 187.608 47.7346C187.582 47.6495 187.581 47.5581 187.608 47.4728C187.634 47.3875 187.686 47.3124 187.757 47.2575C187.827 47.2026 187.913 47.1706 188.002 47.1658L189.846 47.0785L190.963 45.609C191.017 45.5383 191.092 45.486 191.177 45.459C191.262 45.4321 191.354 45.4319 191.439 45.4584C191.524 45.4849 191.599 45.5368 191.654 45.6073C191.709 45.6777 191.741 45.7633 191.746 45.8525L191.833 47.6962L193.303 48.8131C193.374 48.8669 193.428 48.9417 193.455 49.0272C193.482 49.1126 193.482 49.2045 193.455 49.29Z" fill="black" fill-opacity="0.2"/>
</g>
<g clip-path="url(#clip4_263_1138)">
<path d="M203.595 16.3725C203.6 16.4878 203.569 16.6017 203.506 16.6986C203.444 16.7954 203.352 16.8703 203.245 16.9129L201.046 17.8043L200.316 20.0621C200.28 20.1712 200.212 20.2666 200.12 20.3355C200.028 20.4044 199.918 20.4436 199.803 20.4478C199.688 20.4519 199.575 20.4209 199.478 20.3588C199.382 20.2967 199.306 20.2065 199.262 20.1004L198.371 17.9009L196.113 17.1716C196.004 17.1355 195.909 17.067 195.84 16.9752C195.771 16.8834 195.732 16.7726 195.728 16.6579C195.723 16.5431 195.754 16.4298 195.817 16.3333C195.879 16.2367 195.969 16.1614 196.075 16.1176L198.274 15.2266L199.004 12.9683C199.04 12.8593 199.108 12.7639 199.2 12.695C199.292 12.626 199.403 12.5869 199.517 12.5827C199.632 12.5785 199.746 12.6096 199.842 12.6717C199.939 12.7338 200.014 12.824 200.058 12.9301L200.949 15.1296L203.207 15.8589C203.317 15.8936 203.414 15.9617 203.483 16.0537C203.553 16.1458 203.592 16.2572 203.595 16.3725Z" fill="url(#paint4_linear_263_1138)"/>
<path d="M203.595 16.3725C203.6 16.4878 203.569 16.6017 203.506 16.6986C203.444 16.7954 203.352 16.8703 203.245 16.9129L201.046 17.8043L200.316 20.0621C200.28 20.1712 200.212 20.2666 200.12 20.3355C200.028 20.4044 199.918 20.4436 199.803 20.4478C199.688 20.4519 199.575 20.4209 199.478 20.3588C199.382 20.2967 199.306 20.2065 199.262 20.1004L198.371 17.9009L196.113 17.1716C196.004 17.1355 195.909 17.067 195.84 16.9752C195.771 16.8834 195.732 16.7726 195.728 16.6579C195.723 16.5431 195.754 16.4298 195.817 16.3333C195.879 16.2367 195.969 16.1614 196.075 16.1176L198.274 15.2266L199.004 12.9683C199.04 12.8593 199.108 12.7639 199.2 12.695C199.292 12.626 199.403 12.5869 199.517 12.5827C199.632 12.5785 199.746 12.6096 199.842 12.6717C199.939 12.7338 200.014 12.824 200.058 12.9301L200.949 15.1296L203.207 15.8589C203.317 15.8936 203.414 15.9617 203.483 16.0537C203.553 16.1458 203.592 16.2572 203.595 16.3725Z" fill="black" fill-opacity="0.2"/>
</g>
<g clip-path="url(#clip5_263_1138)">
<path d="M223.066 20.1016C223.017 20.192 222.942 20.2651 222.85 20.3107C222.758 20.3563 222.654 20.3722 222.553 20.3561L220.467 20.0403L218.886 21.4359C218.809 21.5029 218.713 21.5447 218.612 21.5558C218.51 21.5669 218.408 21.5466 218.318 21.4978C218.229 21.4489 218.156 21.3738 218.111 21.2825C218.065 21.1913 218.048 21.0882 218.063 20.9872L218.379 18.9016L216.983 17.32C216.916 17.243 216.874 17.1474 216.863 17.0459C216.852 16.9445 216.872 16.842 216.921 16.7524C216.97 16.6628 217.045 16.5903 217.136 16.5446C217.228 16.4989 217.331 16.4823 217.432 16.4969L219.517 16.8129L221.099 15.4171C221.176 15.3501 221.272 15.3083 221.373 15.2972C221.474 15.2861 221.577 15.3064 221.666 15.3552C221.756 15.4041 221.829 15.4792 221.874 15.5705C221.92 15.6617 221.937 15.7648 221.922 15.8658L221.606 17.9516L223.002 19.533C223.07 19.6094 223.113 19.7052 223.124 19.8071C223.136 19.909 223.115 20.0119 223.066 20.1016Z" fill="url(#paint5_linear_263_1138)"/>
<path d="M223.066 20.1016C223.017 20.192 222.942 20.2651 222.85 20.3107C222.758 20.3563 222.654 20.3722 222.553 20.3561L220.467 20.0403L218.886 21.4359C218.809 21.5029 218.713 21.5447 218.612 21.5558C218.51 21.5669 218.408 21.5466 218.318 21.4978C218.229 21.4489 218.156 21.3738 218.111 21.2825C218.065 21.1913 218.048 21.0882 218.063 20.9872L218.379 18.9016L216.983 17.32C216.916 17.243 216.874 17.1474 216.863 17.0459C216.852 16.9445 216.872 16.842 216.921 16.7524C216.97 16.6628 217.045 16.5903 217.136 16.5446C217.228 16.4989 217.331 16.4823 217.432 16.4969L219.517 16.8129L221.099 15.4171C221.176 15.3501 221.272 15.3083 221.373 15.2972C221.474 15.2861 221.577 15.3064 221.666 15.3552C221.756 15.4041 221.829 15.4792 221.874 15.5705C221.92 15.6617 221.937 15.7648 221.922 15.8658L221.606 17.9516L223.002 19.533C223.07 19.6094 223.113 19.7052 223.124 19.8071C223.136 19.909 223.115 20.0119 223.066 20.1016Z" fill="black" fill-opacity="0.2"/>
</g>
<defs>
<linearGradient id="paint0_linear_263_1138" x1="112" y1="41.5981" x2="730.73" y2="400.63" gradientUnits="userSpaceOnUse">
<stop stop-color="#E01254"/>
<stop offset="1" stop-color="#FFAD3B"/>
</linearGradient>
<linearGradient id="paint1_linear_263_1138" x1="210.032" y1="30.8983" x2="219.114" y2="36.7769" gradientUnits="userSpaceOnUse">
<stop stop-color="#E01254"/>
<stop offset="1" stop-color="#FFAD3B"/>
</linearGradient>
<linearGradient id="paint2_linear_263_1138" x1="172.62" y1="19.2046" x2="180.767" y2="18.4877" gradientUnits="userSpaceOnUse">
<stop stop-color="#E01254"/>
<stop offset="1" stop-color="#FFAD3B"/>
</linearGradient>
<linearGradient id="paint3_linear_263_1138" x1="188.52" y1="44.5361" x2="194.764" y2="47.4379" gradientUnits="userSpaceOnUse">
<stop stop-color="#E01254"/>
<stop offset="1" stop-color="#FFAD3B"/>
</linearGradient>
<linearGradient id="paint4_linear_263_1138" x1="195.584" y1="12.7066" x2="204.394" y2="13.5684" gradientUnits="userSpaceOnUse">
<stop stop-color="#E01254"/>
<stop offset="1" stop-color="#FFAD3B"/>
</linearGradient>
<linearGradient id="paint5_linear_263_1138" x1="218.603" y1="13.6665" x2="224.948" y2="18.32" gradientUnits="userSpaceOnUse">
<stop stop-color="#E01254"/>
<stop offset="1" stop-color="#FFAD3B"/>
</linearGradient>
<clipPath id="clip0_263_1138">
<rect width="130" height="130" fill="white" transform="matrix(-0.908737 0.41737 0.41737 0.908737 118.136 0)"/>
</clipPath>
<clipPath id="clip1_263_1138">
<rect width="11" height="11" fill="white" transform="translate(209.692 30) rotate(25.2492)"/>
</clipPath>
<clipPath id="clip2_263_1138">
<rect width="8.31524" height="8.31524" fill="white" transform="translate(172 18.8269) rotate(-12.6924)"/>
</clipPath>
<clipPath id="clip3_263_1138">
<rect width="7" height="7" fill="white" transform="translate(188.227 44) rotate(17.2637)"/>
</clipPath>
<clipPath id="clip4_263_1138">
<rect width="9" height="9" fill="white" transform="translate(195 12.1814) rotate(-2.07729)"/>
</clipPath>
<clipPath id="clip5_263_1138">
<rect width="8" height="8" fill="white" transform="translate(218.395 13) rotate(28.5937)"/>
</clipPath>
</defs>
</svg>
