<svg width="773" height="220" viewBox="0 0 773 220" fill="none" xmlns="http://www.w3.org/2000/svg">
<path d="M203.26 132.42C203.68 136.2 203.82 139.98 203.82 146V188H184.5V148.66C184.5 145.58 184.5 142.08 184.22 138.3C183.66 130.46 179.32 125.14 169.94 125.14C160.56 125.14 153.14 133.26 153.14 153.98V188H133.82V113.52H153.14V125.56L158.88 116.74C164.2 112.96 169.66 111.56 176.8 111.56C192.62 111.56 201.72 119.4 203.26 132.42ZM274.393 149.22C274.393 151.04 274.393 153.28 274.113 155.8H221.193C222.453 171.48 229.453 176.38 238.413 176.38C246.673 176.38 252.693 171.76 253.953 163.78H273.273C269.493 181.14 255.493 189.96 237.993 189.96C217.553 189.96 201.733 177.22 201.733 151.04C201.733 128.22 216.713 111.56 239.533 111.56C262.353 111.56 274.393 128.92 274.393 149.22ZM238.693 125.14C229.733 125.14 223.433 130.88 221.753 143.2H254.513C253.253 131.44 247.933 125.14 238.693 125.14ZM381.371 113.52L357.711 188H335.871L323.271 131.3L310.531 188H288.551L264.891 113.52H286.451L299.611 171.9L311.791 113.8H335.031L347.631 171.76L360.651 113.52H381.371ZM402.658 111.56C420.438 111.56 430.518 121.5 432.198 135.08H412.878C411.618 128.22 407.838 124.3 401.398 124.3C395.658 124.3 392.578 127.66 392.578 132.28C392.578 137.88 397.198 140.82 409.518 143.9C424.778 147.82 433.738 153.98 433.738 167.7C433.738 182.68 420.158 189.96 403.078 189.96C385.018 189.96 372.278 182.12 370.178 165.32H389.498C391.038 173.44 396.638 177.22 403.358 177.22C409.518 177.22 414.278 174.56 414.278 169.1C414.278 163.36 409.378 160.14 396.498 156.92C382.638 153.42 373.118 147.4 373.118 134.52C373.118 120.24 384.878 111.56 402.658 111.56ZM501.088 132.42C501.508 136.2 501.648 139.98 501.648 146V188H482.328V148.66C482.328 145.58 482.328 142.08 482.048 138.3C481.488 130.46 477.148 125.14 467.768 125.14C458.388 125.14 450.968 133.26 450.968 153.98V188H431.648V113.52H450.968V125.56L456.708 116.74C462.028 112.96 467.488 111.56 474.628 111.56C490.448 111.56 499.548 119.4 501.088 132.42ZM547.861 188L546.461 177.08L542.821 185.06C537.641 188.56 531.341 189.96 524.341 189.96C511.461 189.96 500.401 182.4 500.401 168.26C500.401 151.88 514.401 142.64 541.421 142.64H546.181V141.1C546.181 138.86 546.181 136.62 545.901 134.1C545.341 128.92 541.981 125.14 534.421 125.14C526.721 125.14 522.521 129.62 521.961 137.74L503.201 137.88C503.761 121.08 517.341 111.56 535.121 111.56C555.981 111.56 563.821 120.66 564.941 133.54C565.221 137.04 565.361 140.96 565.361 145.02V169.1C565.361 174.7 565.641 179.74 566.761 188H547.861ZM531.761 176.38C539.601 176.38 546.181 170.92 546.181 160.56V154.54C530.781 153.42 520.421 156.92 520.421 166.72C520.421 173.3 524.901 176.38 531.761 176.38ZM592.315 126.82V161.26C592.315 163.78 592.315 165.88 592.455 167.84C593.015 175.12 595.675 176.8 606.455 175.96V188.56C602.115 189.26 598.055 189.54 593.715 189.54C579.295 189.54 574.115 184.78 573.275 174.28C572.995 170.92 572.995 167.7 572.995 163.5V126.82H562.075V114.08H572.995V95.74H592.315V114.08H607.715V126.82H592.315ZM628.9 126.82V161.26C628.9 163.78 628.9 165.88 629.04 167.84C629.6 175.12 632.26 176.8 643.04 175.96V188.56C638.7 189.26 634.64 189.54 630.3 189.54C615.88 189.54 610.7 184.78 609.86 174.28C609.58 170.92 609.58 167.7 609.58 163.5V126.82H598.66V114.08H609.58V95.74H628.9V114.08H644.3V126.82H628.9ZM708.776 149.22C708.776 151.04 708.776 153.28 708.496 155.8H655.576C656.836 171.48 663.836 176.38 672.796 176.38C681.056 176.38 687.076 171.76 688.336 163.78H707.656C703.876 181.14 689.876 189.96 672.376 189.96C651.936 189.96 636.116 177.22 636.116 151.04C636.116 128.22 651.096 111.56 673.916 111.56C696.736 111.56 708.776 128.92 708.776 149.22ZM673.076 125.14C664.116 125.14 657.816 130.88 656.136 143.2H688.896C687.636 131.44 682.316 125.14 673.076 125.14ZM746.033 111.7C748.273 111.7 749.813 111.84 751.493 112.26V127.8C735.393 126.68 727.413 133.82 727.413 153.84V188H708.093V113.52H727.413V127.1L733.293 116.74C736.933 113.38 741.833 111.7 746.033 111.7ZM755.537 166.44C762.537 166.44 767.297 171.34 767.297 178.2C767.297 185.06 762.537 189.96 755.537 189.96C748.677 189.96 743.917 185.06 743.917 178.2C743.917 171.34 748.677 166.44 755.537 166.44Z" fill="black"/>
<g clip-path="url(#clip0_2049_848)">
<path d="M30.3571 100.589C27.4425 94.2233 27.1716 86.9617 29.6041 80.397C32.0366 73.8323 36.9736 68.5004 43.3322 65.5711L61.6433 57.1611C63.1862 56.3351 85.0687 44.1669 98.3636 16.0994C99.1901 14.3522 100.498 12.8772 102.134 11.8474C103.769 10.8177 105.665 10.2761 107.597 10.2861C109.53 10.2962 111.42 10.8576 113.045 11.9043C114.67 12.951 115.962 14.4396 116.77 16.1953L150.682 90.0302C151.5 91.7835 151.796 93.7358 151.532 95.6529C151.269 97.57 150.458 99.3703 149.197 100.838C147.95 102.32 146.304 103.412 144.453 103.983C142.603 104.555 140.628 104.581 138.763 104.06C123.421 99.8387 107.281 99.4182 91.7403 102.835L105.427 129.387C106.125 130.906 106.437 132.574 106.336 134.242C106.235 135.911 105.723 137.529 104.847 138.952C104.705 139.184 104.548 139.406 104.375 139.616L99.2075 145.934C98.3145 147.237 97.1298 148.314 95.7477 149.079C94.3656 149.844 92.8241 150.276 91.2457 150.341C89.6674 150.405 88.0957 150.101 86.6557 149.452C85.2156 148.802 83.9469 147.826 82.9502 146.6L60.8353 115.19C54.8495 116.696 48.5255 116.061 42.959 113.394C37.3925 110.727 32.9344 106.197 30.3571 100.589ZM137.832 91.2544L107.475 25.1584C96.7334 45.7778 82.2463 58.0364 73.85 63.8821L86.554 91.5425C96.4509 88.964 115.19 85.9625 137.832 91.2544ZM90.8043 136.958L93.807 133.288L80.1416 106.781L72.5735 110.257L90.8043 136.958ZM60.2879 102.489L75.0549 95.7063L63.1859 69.8641L48.4189 76.6463C44.992 78.2203 42.3307 81.091 41.0205 84.6272C39.7103 88.1633 39.8584 92.075 41.4323 95.5019C43.0062 98.9288 45.877 101.59 49.4131 102.9C52.9492 104.211 56.861 104.062 60.2879 102.489Z" fill="black"/>
</g>
<path d="M135 57L161.833 43.5836" stroke="black" stroke-width="7" stroke-linecap="round"/>
<path d="M129 47.5378L145.776 22.6667" stroke="black" stroke-width="7" stroke-linecap="round"/>
<path d="M140 68.3374L170.007 65.2078" stroke="black" stroke-width="7" stroke-linecap="round"/>
<circle cx="149" cy="17.5" r="7.5" fill="black"/>
<circle cx="166.5" cy="40.5" r="7.5" fill="black"/>
<circle cx="176.5" cy="64.5" r="7.5" fill="black"/>
<defs>
<clipPath id="clip0_2049_848">
<rect width="130" height="130" fill="white" transform="matrix(-0.908737 0.41737 0.41737 0.908737 118.136 0)"/>
</clipPath>
</defs>
</svg>
