<svg width="947" height="164" viewBox="0 0 947 164" fill="none" xmlns="http://www.w3.org/2000/svg">
<path d="M2.47061e-05 161.8V1.80005H38.2L49.5 52.7L61.1 139H66.1L61.4 67.4L59.3 1.80005H84.3V161.8H44.3L32.8 108.2L23.8 24.4H18.4L22.8 100.8L25 161.8H2.47061e-05ZM101.563 161.8V1.80005H164.763V24.6H127.463V69.2H162.763V92H127.463V139H164.763V161.8H101.563ZM187.63 161.8L173.53 1.80005H199.53L204.23 71.7L207.63 139H212.73L213.53 71.7L225.33 2.80005H259.83L271.73 71.7L272.43 139H277.53L280.93 71.7L285.73 1.80005H311.73L297.53 161.8H254.73L248.13 115.2L245.13 24.8H240.03L237.03 115.2L230.43 161.8H187.63ZM360.014 163.6C346.747 163.6 337.281 160.767 331.614 155.1C325.947 149.433 322.814 140.033 322.214 126.9C322.147 124.3 322.114 121.6 322.114 118.8C322.114 116 322.181 113.233 322.314 110.5C322.447 107.7 322.647 104.967 322.914 102.3H347.214C346.947 107.433 346.781 112.533 346.714 117.6C346.714 122.6 346.881 127.267 347.214 131.6C347.547 135.2 348.714 137.933 350.714 139.8C352.781 141.6 355.881 142.5 360.014 142.5C364.081 142.5 367.047 141.6 368.914 139.8C370.781 137.933 371.881 135.2 372.214 131.6C372.481 128.933 372.647 126.4 372.714 124C372.847 121.6 372.847 119.167 372.714 116.7C372.647 114.233 372.481 111.633 372.214 108.9C372.014 105.567 371.181 102.633 369.714 100.1C368.314 97.5667 365.947 95.8667 362.614 95L347.714 91.2C341.247 89.5334 336.147 87.1334 332.414 84C328.681 80.8 325.981 76.8 324.314 72C322.714 67.2 321.814 61.5334 321.614 55C321.547 51.7334 321.514 48.6 321.514 45.6C321.514 42.5334 321.547 39.5 321.614 36.5C321.947 27.7667 323.381 20.7334 325.914 15.4C328.514 10 332.547 6.10004 338.014 3.70004C343.547 1.23338 350.881 4.57764e-05 360.014 4.57764e-05C372.881 4.57764e-05 382.181 2.83338 387.914 8.50004C393.714 14.1 396.881 23.4334 397.414 36.5C397.547 39.5667 397.581 43.3334 397.514 47.8C397.447 52.2667 397.314 56.5667 397.114 60.7H372.314C372.514 55.9 372.647 51.1 372.714 46.3C372.781 41.4334 372.714 36.6 372.514 31.8C372.381 28.2667 371.214 25.6 369.014 23.8C366.881 22 363.881 21.1 360.014 21.1C355.881 21.1 352.847 22 350.914 23.8C348.981 25.6 347.814 28.2667 347.414 31.8C347.081 35.6667 346.914 39.5334 346.914 43.4C346.914 47.2667 347.081 51.1334 347.414 55C347.747 58.4667 348.614 61.4 350.014 63.8C351.481 66.2 354.014 67.8334 357.614 68.7L370.714 71.8C377.581 73.4667 382.981 75.9667 386.914 79.3C390.847 82.5667 393.647 86.6667 395.314 91.6C397.047 96.5334 398.014 102.3 398.214 108.9C398.281 111.1 398.314 113.2 398.314 115.2C398.314 117.133 398.281 119.067 398.214 121C398.214 122.867 398.147 124.833 398.014 126.9C397.481 140.033 394.347 149.433 388.614 155.1C382.947 160.767 373.414 163.6 360.014 163.6ZM456.055 161.8V1.80005H494.255L505.555 52.7L517.155 139H522.155L517.455 67.4L515.355 1.80005H540.355V161.8H500.355L488.855 108.2L479.855 24.4H474.455L478.855 100.8L481.055 161.8H456.055ZM551.617 161.8L572.517 1.80005H614.117L635.017 161.8H608.517L604.917 125.1H581.717L578.117 161.8H551.617ZM584.117 102.3H602.517L599.017 67.1L596.117 24.6H590.517L587.617 67.1L584.117 102.3ZM654.595 161.8V24.6H630.295V1.80005H704.795V24.6H680.395V161.8H654.595ZM733.502 161.8V24.6H709.202V1.80005H783.702V24.6H759.302V161.8H733.502ZM793.555 161.8V1.80005H856.755V24.6H819.455V69.2H854.755V92H819.455V139H856.755V161.8H793.555ZM869.922 161.8V1.80005H905.022C918.489 1.80005 928.189 4.56671 934.122 10.1C940.122 15.6334 943.355 24.7667 943.822 37.5C943.955 41.7667 944.055 45.6334 944.122 49.1C944.189 52.5 944.189 55.9 944.122 59.3C944.055 62.6334 943.955 66.3 943.822 70.3C943.555 78.4334 942.189 85.0667 939.722 90.2C937.255 95.2667 933.389 99.1 928.122 101.7L946.222 161.8H918.822L903.822 106H895.822V161.8H869.922ZM895.822 83.2H904.922C909.255 83.2 912.455 82.2334 914.522 80.3C916.655 78.3 917.822 75.4 918.022 71.6C918.222 67.8667 918.355 64 918.422 60C918.489 55.9334 918.489 51.9 918.422 47.9C918.355 43.8334 918.222 39.9334 918.022 36.2C917.822 32.4 916.655 29.5334 914.522 27.6C912.455 25.6 909.289 24.6 905.022 24.6H895.822V83.2Z" fill="url(#paint0_linear_205_1324)"/>
<path d="M2.47061e-05 161.8V1.80005H38.2L49.5 52.7L61.1 139H66.1L61.4 67.4L59.3 1.80005H84.3V161.8H44.3L32.8 108.2L23.8 24.4H18.4L22.8 100.8L25 161.8H2.47061e-05ZM101.563 161.8V1.80005H164.763V24.6H127.463V69.2H162.763V92H127.463V139H164.763V161.8H101.563ZM187.63 161.8L173.53 1.80005H199.53L204.23 71.7L207.63 139H212.73L213.53 71.7L225.33 2.80005H259.83L271.73 71.7L272.43 139H277.53L280.93 71.7L285.73 1.80005H311.73L297.53 161.8H254.73L248.13 115.2L245.13 24.8H240.03L237.03 115.2L230.43 161.8H187.63ZM360.014 163.6C346.747 163.6 337.281 160.767 331.614 155.1C325.947 149.433 322.814 140.033 322.214 126.9C322.147 124.3 322.114 121.6 322.114 118.8C322.114 116 322.181 113.233 322.314 110.5C322.447 107.7 322.647 104.967 322.914 102.3H347.214C346.947 107.433 346.781 112.533 346.714 117.6C346.714 122.6 346.881 127.267 347.214 131.6C347.547 135.2 348.714 137.933 350.714 139.8C352.781 141.6 355.881 142.5 360.014 142.5C364.081 142.5 367.047 141.6 368.914 139.8C370.781 137.933 371.881 135.2 372.214 131.6C372.481 128.933 372.647 126.4 372.714 124C372.847 121.6 372.847 119.167 372.714 116.7C372.647 114.233 372.481 111.633 372.214 108.9C372.014 105.567 371.181 102.633 369.714 100.1C368.314 97.5667 365.947 95.8667 362.614 95L347.714 91.2C341.247 89.5334 336.147 87.1334 332.414 84C328.681 80.8 325.981 76.8 324.314 72C322.714 67.2 321.814 61.5334 321.614 55C321.547 51.7334 321.514 48.6 321.514 45.6C321.514 42.5334 321.547 39.5 321.614 36.5C321.947 27.7667 323.381 20.7334 325.914 15.4C328.514 10 332.547 6.10004 338.014 3.70004C343.547 1.23338 350.881 4.57764e-05 360.014 4.57764e-05C372.881 4.57764e-05 382.181 2.83338 387.914 8.50004C393.714 14.1 396.881 23.4334 397.414 36.5C397.547 39.5667 397.581 43.3334 397.514 47.8C397.447 52.2667 397.314 56.5667 397.114 60.7H372.314C372.514 55.9 372.647 51.1 372.714 46.3C372.781 41.4334 372.714 36.6 372.514 31.8C372.381 28.2667 371.214 25.6 369.014 23.8C366.881 22 363.881 21.1 360.014 21.1C355.881 21.1 352.847 22 350.914 23.8C348.981 25.6 347.814 28.2667 347.414 31.8C347.081 35.6667 346.914 39.5334 346.914 43.4C346.914 47.2667 347.081 51.1334 347.414 55C347.747 58.4667 348.614 61.4 350.014 63.8C351.481 66.2 354.014 67.8334 357.614 68.7L370.714 71.8C377.581 73.4667 382.981 75.9667 386.914 79.3C390.847 82.5667 393.647 86.6667 395.314 91.6C397.047 96.5334 398.014 102.3 398.214 108.9C398.281 111.1 398.314 113.2 398.314 115.2C398.314 117.133 398.281 119.067 398.214 121C398.214 122.867 398.147 124.833 398.014 126.9C397.481 140.033 394.347 149.433 388.614 155.1C382.947 160.767 373.414 163.6 360.014 163.6ZM456.055 161.8V1.80005H494.255L505.555 52.7L517.155 139H522.155L517.455 67.4L515.355 1.80005H540.355V161.8H500.355L488.855 108.2L479.855 24.4H474.455L478.855 100.8L481.055 161.8H456.055ZM551.617 161.8L572.517 1.80005H614.117L635.017 161.8H608.517L604.917 125.1H581.717L578.117 161.8H551.617ZM584.117 102.3H602.517L599.017 67.1L596.117 24.6H590.517L587.617 67.1L584.117 102.3ZM654.595 161.8V24.6H630.295V1.80005H704.795V24.6H680.395V161.8H654.595ZM733.502 161.8V24.6H709.202V1.80005H783.702V24.6H759.302V161.8H733.502ZM793.555 161.8V1.80005H856.755V24.6H819.455V69.2H854.755V92H819.455V139H856.755V161.8H793.555ZM869.922 161.8V1.80005H905.022C918.489 1.80005 928.189 4.56671 934.122 10.1C940.122 15.6334 943.355 24.7667 943.822 37.5C943.955 41.7667 944.055 45.6334 944.122 49.1C944.189 52.5 944.189 55.9 944.122 59.3C944.055 62.6334 943.955 66.3 943.822 70.3C943.555 78.4334 942.189 85.0667 939.722 90.2C937.255 95.2667 933.389 99.1 928.122 101.7L946.222 161.8H918.822L903.822 106H895.822V161.8H869.922ZM895.822 83.2H904.922C909.255 83.2 912.455 82.2334 914.522 80.3C916.655 78.3 917.822 75.4 918.022 71.6C918.222 67.8667 918.355 64 918.422 60C918.489 55.9334 918.489 51.9 918.422 47.9C918.355 43.8334 918.222 39.9334 918.022 36.2C917.822 32.4 916.655 29.5334 914.522 27.6C912.455 25.6 909.289 24.6 905.022 24.6H895.822V83.2Z" fill="black" fill-opacity="0.2"/>
<defs>
<linearGradient id="paint0_linear_205_1324" x1="-8.59998" y1="-35.7684" x2="833.93" y2="419.007" gradientUnits="userSpaceOnUse">
<stop stop-color="#E01254"/>
<stop offset="1" stop-color="#FFAD3B"/>
</linearGradient>
</defs>
</svg>
